<svg width="48" height="50" viewBox="0 0 48 50" fill="none" xmlns="http://www.w3.org/2000/svg">
<rect width="48" height="48" rx="24" fill="#F7F6F3"/>
<path d="M19.5 11C16.4624 11 14 13.4619 14 16.4997C14 19.6835 15.8135 22.6873 18.8125 25.4372C19.8361 26.3751 20.9382 27.1981 22.0312 27.937C22.4143 28.195 22.7726 28.429 23.0938 28.624C23.2896 28.743 23.4187 28.829 23.5 28.874C23.802 29.042 24.198 29.042 24.5 28.874C24.5813 28.829 24.7104 28.743 24.9062 28.624C25.2274 28.429 25.5857 28.195 25.9688 27.937C27.0618 27.1981 28.1639 26.3751 29.1875 25.4372C32.1865 22.6873 34 19.6835 34 16.4997C34 13.4619 31.5376 11 28.5 11C26.7748 11 25.0904 11.94 24.0312 13.3119C22.9984 11.916 21.3199 11 19.5 11Z" fill="#194F5B"/>
<path d="M34.9799 38.2575C34.9755 38.9768 34.3887 39.5564 33.6694 39.5519L15.4344 39.4389C14.7151 39.4344 14.1355 38.8477 14.14 38.1283L14.1725 32.8949C14.1769 32.1755 14.7637 31.596 15.483 31.6005L33.7179 31.7135C34.4373 31.718 35.0168 32.3047 35.0124 33.0241L34.9799 38.2575Z" fill="#33C3C3"/>
<path d="M30.272 32.8976L30.2559 34.5026M26.3645 32.8733L26.3484 34.4783M22.457 32.8491L22.4409 34.4541M18.5495 32.8249L18.5334 34.4299" stroke="#F7F6F3" stroke-linecap="round" stroke-linejoin="round"/>
</svg>
