<svg width="440" height="97" viewBox="0 0 440 97" fill="none" xmlns="http://www.w3.org/2000/svg">
<path d="M130.844 9.91226C130.167 7.69282 129.001 5.64892 127.333 3.78684C127.013 3.46709 126.957 3.17242 127.151 2.89656C127.352 2.53919 127.684 2.45768 128.161 2.65831C130.537 3.41067 132.405 4.36365 133.753 5.51099C134.706 6.34485 135.183 7.15363 135.183 7.94987C135.145 8.90285 134.825 9.73671 134.23 10.4452C134.073 10.6019 133.935 10.7399 133.816 10.859H141.546C144.875 10.859 146.48 9.52982 146.361 6.8715C148.781 7.42949 150.725 8.4389 152.192 9.90599C152.907 10.6583 153.264 11.3167 153.264 11.8684C153.227 12.464 152.788 12.7587 151.954 12.7587H118.888C117.22 12.7587 115.32 12.8402 113.176 12.9969C112.461 13.0345 111.91 12.7963 111.508 12.2822C111.189 11.8057 111.032 11.254 111.032 10.6145C113.251 10.7712 115.866 10.8527 118.882 10.8527H131.314C131.114 10.6145 130.957 10.301 130.838 9.89972L130.844 9.91226ZM119.07 33.8183V50.2949C119.07 51.4861 119.126 53.1476 119.245 55.2918C119.283 56.2009 118.869 56.8968 117.998 57.3733C117.283 57.8059 116.173 58.0254 114.668 58.0254C114.907 55.367 115.026 52.7902 115.026 50.2949V35.4861C115.026 33.1475 114.907 31.0848 114.668 29.2979C116.53 29.812 118.198 30.6835 119.665 31.9124H143.158C145.22 31.9124 146.211 31.0033 146.129 29.1788C148.192 29.6929 149.935 30.5895 151.364 31.8559C151.841 32.2133 152.06 32.6083 152.017 33.0472C152.017 33.4422 151.697 33.7619 151.064 34.0002C150.267 34.276 149.872 34.9908 149.872 36.1381V47.1977C149.872 49.5739 149.891 51.3796 149.929 52.6084C149.966 53.9564 149.396 55.0473 148.205 55.8811C147.057 56.715 145.728 57.11 144.217 57.0724C143.659 57.0724 143.364 56.7965 143.327 56.2385C143.245 55.6805 142.932 55.1288 142.374 54.5708C141.778 54.0943 140.844 53.6554 139.578 53.2604C139.139 53.1413 138.982 52.8466 139.101 52.3701C139.183 51.9752 139.477 51.8184 139.991 51.8937C141.615 52.1695 143.145 52.3325 144.568 52.3701C145.402 52.3701 145.816 51.9564 145.816 51.1225V33.8183H119.051H119.07ZM125.314 16.928H136.731C139.189 16.928 140.38 16.0941 140.299 14.4327C142.28 14.8715 143.985 15.6615 145.415 16.8151C145.847 17.2101 146.048 17.6114 146.01 18.0063C146.01 18.4013 145.753 18.6835 145.239 18.8402C144.524 19.1161 144.148 19.6741 144.111 20.5079V24.4954C144.111 25.3669 144.167 26.2384 144.286 27.1098C144.405 28.0252 144.067 28.6772 143.277 29.0722C142.524 29.4672 141.471 29.6678 140.123 29.6678V27.2917H124.781V27.7681C124.744 28.4453 124.443 28.9594 123.891 29.3167C123.176 29.8309 122.067 30.0503 120.562 29.9688C120.681 28.6208 120.744 27.0158 120.744 25.1537V19.5048C120.744 17.4421 120.643 15.8559 120.449 14.7461C122.355 15.185 123.979 15.9186 125.327 16.9468L125.314 16.928ZM124.067 52.0817C124.223 50.1005 124.324 47.8623 124.361 45.3607V41.7933C124.324 39.8121 124.204 38.0064 124.004 36.3826C125.628 36.7776 127.157 37.555 128.581 38.7024H133.634C136.092 38.7024 137.283 37.8685 137.201 36.2071C139.063 36.6836 140.65 37.4986 141.96 38.6459C142.355 39.0033 142.537 39.3607 142.493 39.718C142.493 40.0754 142.255 40.3325 141.778 40.4892C141.063 40.7651 140.687 41.2855 140.65 42.0378V46.32C140.65 47.1914 140.706 48.0629 140.825 48.9344C140.944 49.8874 140.625 50.5394 139.872 50.8968C139.195 51.2918 138.248 51.4924 137.02 51.4924V48.878H128.041V49.3545C128.041 50.3889 127.703 51.0786 127.032 51.436C126.399 51.8748 125.408 52.088 124.06 52.088L124.067 52.0817ZM140.123 18.8339H124.781V25.3732H140.123V18.8339ZM137.032 40.6021H128.054V46.9657H137.032V40.6021Z" fill="black"/>
<path d="M178.844 12.232H197.521C200.336 12.232 201.666 10.9844 201.509 8.48281C203.371 8.80256 204.995 9.55491 206.387 10.7399C207.578 11.7305 208.173 12.5267 208.173 13.1161C208.173 13.7932 207.76 14.1255 206.926 14.1255H192.951V25.5424H196.518C199.296 25.5048 200.6 24.2321 200.443 21.7368C202.305 22.0942 203.929 22.8653 205.321 24.0565C206.512 25.0095 207.108 25.8183 207.108 26.4954C207.108 27.1287 206.694 27.4484 205.86 27.4484H192.951V40.7087H199.496C202.825 40.7087 204.449 39.3795 204.374 36.7212C206.75 37.3168 208.675 38.345 210.142 39.8121C210.857 40.5268 211.214 41.1601 211.214 41.7181C211.214 42.3137 210.775 42.6084 209.904 42.6084H192.951V46.5331C192.913 49.5865 192.97 52.3388 193.133 54.8028C193.214 55.7934 192.913 56.5457 192.242 57.0598C191.446 57.6116 190.18 57.8937 188.437 57.8937C188.713 54.1633 188.85 50.3827 188.85 46.5331V42.6084H175.289C173.546 42.6084 171.54 42.6899 169.283 42.8466C168.568 42.8842 168.01 42.646 167.615 42.1319C167.296 41.6993 167.139 41.1413 167.139 40.4641C169.477 40.6209 172.173 40.7024 175.227 40.7024V27.9751C175.227 26.0691 175.107 24.345 174.869 22.8026C176.932 23.3167 178.656 24.2321 180.042 25.5362H188.844V14.1192H178.079C177.327 15.8622 176.549 17.4484 175.76 18.8778C173.54 22.8402 171.258 25.8183 168.919 27.7995C168.481 28.1193 168.104 28.1381 167.791 27.8559C167.515 27.5801 167.515 27.2791 167.791 26.9657C169.973 23.9123 171.916 20.2634 173.622 16.0252C175.603 10.9907 176.932 6.43264 177.609 2.34485C179.515 2.62071 181.12 3.0972 182.424 3.77432C183.139 4.16931 183.434 4.60818 183.314 5.08467C183.233 5.52355 182.901 5.7806 182.305 5.85584C181.628 5.97496 181.114 6.33233 180.756 6.92794C180.123 8.83391 179.49 10.5957 178.85 12.2195L178.844 12.232ZM179.258 27.4547V40.7149H188.832V27.4547H179.258Z" fill="black"/>
<path d="M225.108 50.0566C227.409 47.5613 228.594 44.5833 228.675 41.135C228.713 40.6961 228.914 40.4641 229.271 40.4202C229.628 40.3826 229.885 40.6021 230.042 41.0723C230.399 42.8152 230.481 44.8591 230.28 47.1977C230.08 49.8936 229.428 51.9751 228.318 53.4422C227.804 54.2761 227.227 54.7275 226.594 54.809C226.117 54.8905 225.722 54.809 225.403 54.5708C224.926 54.1319 224.588 53.5175 224.393 52.7275C224.073 51.7369 224.312 50.8466 225.108 50.0504V50.0566ZM242.124 16.2132C238.318 24.0628 234.569 29.9123 230.882 33.7556C233.66 33.3606 236.512 32.8214 239.447 32.1506C239.008 30.3638 238.356 28.7838 237.484 27.392C237.246 26.997 237.265 26.6584 237.541 26.3825C237.816 26.1067 238.136 26.1255 238.494 26.439C240.951 29.0534 242.657 31.6365 243.61 34.1694C244.086 35.3168 244.086 36.3512 243.61 37.2603C243.29 37.9375 242.838 38.4516 242.243 38.8089C241.685 39.1663 241.189 39.2227 240.757 38.9845C240.4 38.7839 240.18 38.3513 240.105 37.6741C240.105 36.2885 240.005 34.9782 239.81 33.7494C237.829 34.7838 234.794 35.9688 230.713 37.3168C229.961 37.555 229.503 37.9939 229.346 38.6271C229.189 39.2227 228.888 39.5425 228.456 39.5801C228.017 39.6616 227.584 39.323 227.146 38.5707C226.55 37.3795 226.055 35.9124 225.66 34.1694C226.569 34.0879 227.346 33.7305 227.979 33.0973C229.566 31.4296 231.252 29.0346 233.033 25.8998C233.904 24.3951 234.675 22.9656 235.352 21.6176C234.086 22.0941 232.475 22.5894 230.537 23.1035C229.785 23.3042 229.309 23.718 229.108 24.3512C228.989 24.8277 228.732 25.0847 228.337 25.1224C227.942 25.16 227.566 24.8841 227.208 24.2885C226.531 22.9781 226.036 21.417 225.722 19.5925C226.989 19.3919 227.961 18.7023 228.638 17.511C230.976 13.4671 232.544 8.8276 233.334 3.59247C235.196 3.74921 236.801 4.15046 238.149 4.7837C238.782 5.10345 239.083 5.47962 239.039 5.91223C239.039 6.30721 238.744 6.56427 238.149 6.68339C237.472 6.84013 236.976 7.27901 236.663 7.99374C234.838 12.9091 232.776 16.8339 230.475 19.7681C232.575 19.7305 234.575 19.5863 236.481 19.3543C237.829 16.4577 238.6 14.0627 238.801 12.1568C240.588 12.395 242.092 12.8088 243.321 13.4044C243.998 13.6803 244.331 14.0377 244.331 14.4765C244.331 14.8715 244.036 15.1286 243.44 15.2477C242.807 15.4044 242.368 15.7242 242.13 16.2007L242.124 16.2132ZM232.487 50.7087C233.045 46.7024 232.845 43.3356 231.892 40.5958C231.772 40.2008 231.892 39.8999 232.249 39.7055C232.525 39.5049 232.826 39.5864 233.139 39.9437C235.478 43.1538 236.669 45.95 236.707 48.3325C236.744 49.204 236.312 50.0566 235.396 50.8905C235.039 51.2855 234.644 51.5864 234.205 51.7808C233.729 51.9375 233.315 51.9187 232.957 51.7244C232.6 51.4861 232.443 51.1476 232.481 50.7149L232.487 50.7087ZM238.788 47.2604C238.393 43.8121 237.459 41.0974 235.992 39.1099C235.716 38.7525 235.754 38.439 236.111 38.1569C236.349 37.9187 236.663 37.9375 237.064 38.2133C239.842 40.3136 241.522 42.3387 242.117 44.2823C242.356 44.9971 242.174 45.8309 241.584 46.7776C241.384 47.1726 241.089 47.53 240.694 47.8497C240.299 48.1695 239.898 48.2635 239.503 48.1444C239.108 48.0629 238.87 47.7682 238.788 47.2541V47.2604ZM245.628 33.6428C246.262 28.37 246.563 20.7963 246.519 10.9217C245.685 10.9593 244.713 11.022 243.603 11.1035C242.889 11.185 242.356 10.9655 241.998 10.4514C241.641 9.97494 241.465 9.40441 241.465 8.72729C243.885 8.88403 245.967 8.96553 247.71 8.96553H254.726C256.945 8.96553 258.036 8.05644 257.998 6.23198C260.136 6.94672 261.823 7.85581 263.052 8.96553C263.491 9.40441 263.666 9.8182 263.585 10.2132C263.503 10.6521 263.19 10.9467 262.632 11.1035C261.798 11.3417 261.302 11.9561 261.146 12.9467L258.77 25.7305C260.832 25.5738 261.86 24.602 261.86 22.8151C263.447 23.2101 265.014 24.0816 266.556 25.4296C267.233 25.9876 267.509 26.5017 267.39 26.9782C267.309 27.3731 266.995 27.6302 266.437 27.7493C265.685 27.9876 265.171 28.6208 264.889 29.6553C263.622 35.1663 261.817 39.8873 259.478 43.8121C261.898 46.7839 264.951 49.2479 268.638 51.1852C269.114 51.461 269.334 51.762 269.29 52.0755C269.252 52.4328 268.951 52.6084 268.4 52.6084C267.133 52.7651 266.099 53.461 265.309 54.6899C264.951 55.204 264.494 55.2667 263.942 54.8717C261.127 52.7275 258.788 50.2949 256.926 47.5551C253.478 51.9187 249.114 54.9281 243.842 56.5959C243.365 56.7526 243.026 56.6523 242.832 56.3012C242.675 55.9438 242.795 55.6491 243.189 55.4109C248.067 52.5958 251.992 48.8466 254.964 44.1695C254.807 43.856 254.669 43.555 254.55 43.2792C252.211 38.2823 250.863 33.0722 250.506 27.6365H249.911C249.672 31.5613 249.334 34.6961 248.901 37.0346C247.233 45.7996 243.804 52.1193 238.613 56.0065C238.099 56.3263 237.697 56.3451 237.421 56.0692C237.221 55.7495 237.283 55.3921 237.597 54.9971C241.961 49.2855 244.631 42.1695 245.628 33.649V33.6428ZM250.387 10.8652C250.387 16.6145 250.268 21.5737 250.03 25.7305H254.964L257.76 10.8652H250.387ZM257.052 40.3638C258.876 36.6396 260.205 32.3951 261.039 27.6365H251.998C253.108 32.4327 254.795 36.6773 257.052 40.3638Z" fill="black"/>
<path d="M297.196 52.2573C296.243 49.2855 294.895 46.903 293.152 45.1224C290.613 49.2855 287.816 52.4391 284.763 54.577C284.406 54.8153 284.067 54.7965 283.754 54.5206C283.516 54.2447 283.516 53.9438 283.754 53.6303C287.559 48.8717 290.456 43.16 292.437 36.5017C294.299 37.0597 295.785 37.649 296.895 38.2885C297.572 38.7274 297.848 39.16 297.729 39.5989C297.647 40.0378 297.353 40.276 296.838 40.3136C296.086 40.3951 295.547 40.7525 295.233 41.3857C294.838 42.1381 294.462 42.8716 294.105 43.5864C296.406 44.8967 298.23 46.3638 299.578 47.9877C300.368 48.9406 300.707 49.8685 300.588 50.7839C300.469 51.5801 300.174 52.2322 299.697 52.7463C299.259 53.2604 298.782 53.4798 298.268 53.3983C297.829 53.3168 297.472 52.9407 297.196 52.2698V52.2573ZM287.798 25.5549V9.73041C287.359 9.76803 286.726 9.83073 285.892 9.91223C285.095 9.94985 284.544 9.6928 284.224 9.14107C283.904 8.62696 283.748 8.09404 283.748 7.53605C285.49 7.73667 287.095 7.81191 288.563 7.77429H296.769C299.152 7.77429 300.318 6.78369 300.28 4.80249C302.067 5.24136 303.528 6.01253 304.682 7.12225C305.359 7.75548 305.691 8.3511 305.691 8.90909C305.691 9.4232 305.334 9.68026 304.619 9.68026H302.895V21.7556C302.895 23.9374 302.951 26.138 303.077 28.3575C303.077 29.2728 302.701 29.9813 301.948 30.4954C301.196 31.0095 300.124 31.2666 298.738 31.2666C298.895 29.4797 298.995 27.6176 299.033 25.6741C296.776 26.5455 293.484 27.5361 289.158 28.6459C288.048 28.8026 287.415 29.2415 287.252 29.9562C287.052 30.5894 286.719 30.928 286.243 30.9656C285.685 31.0032 285.233 30.6083 284.876 29.7744C284.4 28.7462 284.023 27.4923 283.748 26.0252C284.976 25.906 286.324 25.7493 287.791 25.5487L287.798 25.5549ZM287.258 34.8904C292.769 34.1004 298.105 33.0471 303.259 31.7368C309.008 30.3073 312.813 29.0032 314.676 27.812C315.986 28.4452 317.234 29.2791 318.425 30.3073C319.02 30.9405 319.121 31.4985 318.719 31.975C318.481 32.2948 318.005 32.37 317.29 32.2133C316.694 32.1318 315.961 32.1757 315.089 32.3324C312.155 33.0471 309.183 33.6616 306.168 34.1757V47.4986C306.168 50.0378 306.224 52.577 306.343 55.1099C306.343 56.019 305.967 56.7338 305.215 57.2542C304.418 57.7683 303.309 58.0253 301.886 58.0253C302.124 54.7714 302.243 51.2667 302.243 47.4986V34.7713L300.995 34.9531C295.679 35.7055 291.202 36.1443 287.553 36.2635C286.995 36.2635 286.7 36.044 286.663 35.6114C286.663 35.2164 286.864 34.9782 287.258 34.8967V34.8904ZM299.039 9.67399H291.603V13.4796H299.039V9.67399ZM299.039 15.2665H291.603V18.8966H299.039V15.2665ZM299.039 20.6772H291.603V24.9593C293.86 24.5643 296.343 24.1067 299.039 23.5926V20.6772ZM314.795 21.9875C312.136 25.4358 308.964 27.8183 305.277 29.1224C304.719 29.3982 304.343 29.3606 304.149 29.0032C303.948 28.6459 304.049 28.3073 304.444 27.9938C307.578 25.7744 310.193 22.8778 312.293 19.3104C310.788 17.8057 309.102 16.3198 307.24 14.8464C306.845 14.5329 306.763 14.2132 307.002 13.8934C307.24 13.58 307.597 13.5173 308.074 13.7179C310.099 14.79 311.942 15.8621 313.603 16.9279C314.556 15.022 315.39 12.9405 316.099 10.6834H310.864C310.067 10.6834 309.077 10.7649 307.892 10.9216C307.215 11.0031 306.682 10.7649 306.287 10.2069C305.929 9.6928 305.754 9.1348 305.754 8.53919C307.459 8.69593 308.889 8.77743 310.036 8.77743H313.547C316.243 8.77743 317.534 7.84326 317.415 5.98118C319.121 6.49529 320.688 7.36677 322.111 8.59561C322.707 9.15361 322.92 9.6301 322.763 10.0251C322.607 10.4201 322.249 10.6771 321.691 10.7962C321.133 10.8778 320.6 11.3292 320.086 12.163C319.096 14.7775 317.986 17.0972 316.757 19.1223C318.262 20.3135 319.572 21.5236 320.682 22.7524C321.911 24.138 322.469 25.3919 322.35 26.5017C322.312 27.2164 322.074 27.8872 321.635 28.5267C321.196 29.0847 320.763 29.3418 320.324 29.2979C319.848 29.2603 319.472 28.9217 319.196 28.2885C318.049 26.1443 316.582 24.044 314.795 21.9875ZM306.77 52.6146C310.017 47.7808 312.318 42.0691 313.666 35.486C315.528 35.881 317.058 36.3575 318.243 36.9155C318.958 37.3105 319.271 37.7305 319.196 38.1632C319.114 38.5581 318.839 38.8152 318.362 38.9343C317.647 39.0534 317.152 39.4484 316.876 40.1255C316.519 40.997 316.143 41.8309 315.748 42.6209C318.719 44.2071 321.002 46.1507 322.588 48.4516C323.303 49.6804 323.284 50.9469 322.531 52.2573C321.973 53.0911 321.359 53.4673 320.688 53.3858C320.174 53.3482 319.773 52.9469 319.497 52.1946C318.35 49.1789 316.82 46.5645 314.92 44.345C312.895 48.2322 310.556 51.2667 307.904 53.4422C307.547 53.7557 307.208 53.7808 306.895 53.4987C306.575 53.2228 306.538 52.9218 306.776 52.6084L306.77 52.6146Z" fill="black"/>
<path d="M358.983 41.9061C354.262 48.3325 347.704 52.7275 339.296 55.11C338.858 55.2291 338.563 55.1288 338.406 54.8153C338.249 54.4203 338.369 54.1194 338.764 53.925C346.137 50.157 351.748 45.3607 355.597 39.5299H347.986C346.996 39.5299 345.014 39.6114 342.036 39.7682C341.359 39.8058 340.845 39.5299 340.488 38.9343C340.093 38.3387 339.892 37.8246 339.892 37.3857C342.669 37.5425 345.146 37.624 347.328 37.624H358.983V36.3763C358.945 34.4704 358.807 32.928 358.569 31.7368C360.431 31.7368 362.08 31.9562 363.503 32.3888C364.174 32.6271 364.513 32.9656 364.513 33.3983C364.513 33.7932 364.275 34.0942 363.798 34.2885C363.203 34.5644 362.908 35.1412 362.908 36.0127V37.6177H370.82C373.717 37.6177 375.083 36.508 374.92 34.2885C377.378 34.765 379.422 35.7556 381.046 37.2603C381.522 37.6992 381.742 38.1757 381.698 38.6898C381.66 39.2478 381.284 39.5237 380.569 39.5237H364.808C369.529 44.4829 375.554 47.6491 382.889 49.041C383.322 49.1225 383.541 49.298 383.541 49.5739C383.579 49.8936 383.422 50.088 383.065 50.1695C381.679 50.6084 380.663 51.461 380.03 52.7275C379.83 53.1664 379.472 53.3043 378.958 53.1413C371.779 50.4077 366.507 45.8685 363.14 39.5237H362.902V49.9312C362.902 51.7933 362.964 53.5363 363.083 55.1664C363.165 56.0379 362.826 56.6899 362.074 57.1288C361.24 57.6429 360.112 57.9187 358.682 57.9626C358.839 55.2667 358.939 52.5896 358.977 49.9312V41.8999L358.983 41.9061ZM343.046 14.0753C344.55 10.9844 345.466 7.47336 345.779 3.54858C347.403 3.6677 348.814 3.96237 350.005 4.43886C350.601 4.71473 350.895 5.05329 350.895 5.44827C350.895 5.80564 350.638 6.0627 350.124 6.21944C349.491 6.33856 349.052 6.73355 348.814 7.41067C347.704 10.9781 346.394 13.8558 344.889 16.0314C346.118 16.0314 347.328 15.975 348.519 15.8558C349.472 13.4797 349.986 11.5173 350.068 9.96867C351.616 10.1254 352.964 10.4264 354.112 10.859C354.469 10.9781 354.707 11.116 354.826 11.2728C354.789 10.3637 354.726 9.39187 354.644 8.35738C356.03 8.59562 357.284 9.09092 358.394 9.84328C359.027 7.4232 359.365 5.02821 359.403 2.64575C361.027 2.64575 362.375 2.84638 363.447 3.24137C364.118 3.47961 364.438 3.77428 364.4 4.13165C364.362 4.52664 364.143 4.78369 363.748 4.90282C363.152 5.02194 362.739 5.34169 362.5 5.8558C361.786 7.59875 361.014 9.02823 360.181 10.138H360.952C362.814 10.138 363.685 9.40441 363.566 7.93731C365.234 8.29468 366.638 8.9718 367.792 9.9624C368.231 10.3198 368.425 10.6771 368.387 11.0345C368.387 11.3919 368.13 11.6489 367.616 11.8057C367.102 12.0063 366.82 12.5204 366.782 13.3543V23.348C366.82 24.9719 366.883 27.0346 366.964 29.5362C367.002 30.4891 366.707 31.16 366.074 31.5613C365.397 31.9562 364.507 32.1569 363.397 32.1569V29.3042H358.281V30.5518C358.281 31.2666 357.923 31.8183 357.209 32.2196C356.613 32.5393 355.76 32.7149 354.651 32.7525C354.807 31.1286 354.889 29.5612 354.889 28.0565V12.0565C354.77 12.2132 354.55 12.3323 354.237 12.4138C353.723 12.6145 353.365 12.9279 353.165 13.3668C350.626 19.7117 348.011 24.4891 345.315 27.6992C347.058 27.58 348.864 27.3606 350.726 27.0471C350.525 25.4985 350.193 23.9562 349.717 22.4076C349.597 21.9687 349.698 21.6741 350.011 21.5173C350.369 21.3606 350.707 21.4797 351.021 21.8747C352.168 23.4233 353.046 25.1286 353.635 26.9907C354.149 28.4578 354.387 29.6302 354.35 30.5017C354.231 31.3355 353.855 32.0064 353.221 32.5268C352.588 33.0409 352.03 33.2415 351.554 33.1224C351.077 32.9656 350.858 32.4892 350.902 31.6929C350.939 30.7023 350.939 29.7305 350.902 28.7775C349.516 29.4108 347.528 30.0879 344.952 30.8026C344.275 30.9594 343.861 31.3167 343.704 31.8747C343.585 32.3512 343.309 32.6271 342.87 32.7086C342.513 32.7462 342.155 32.4139 341.798 31.6992C341.284 30.671 340.883 29.3794 340.607 27.8308C341.359 27.7932 341.992 27.4735 342.513 26.8778C343.66 25.4923 344.889 23.5487 346.199 21.0471C346.676 20.0565 347.108 19.1223 347.51 18.2508C346.757 18.5267 345.905 18.8088 344.952 19.0847C344.275 19.2853 343.861 19.6991 343.704 20.3324C343.585 20.7273 343.347 20.9468 342.989 20.9844C342.594 21.022 342.256 20.8089 341.98 20.3324C341.303 19.1035 340.807 17.6552 340.494 15.9938C341.723 15.7932 342.575 15.1599 343.052 14.0878L343.046 14.0753ZM358.275 12.0502V18.7085H363.391V12.0502H358.275ZM358.275 20.6145V27.392H363.391V20.6145H358.275ZM369.453 13.9562C370.958 10.9467 371.892 7.51098 372.25 3.6677C373.836 3.78682 375.203 4.0815 376.356 4.55799C376.908 4.79623 377.19 5.11598 377.19 5.51097C377.19 5.83072 376.933 6.06897 376.419 6.22571C375.861 6.34483 375.447 6.72101 375.171 7.35424C374.024 10.8464 372.695 13.6176 371.184 15.6803C372.688 15.5988 374.156 15.4421 375.585 15.2038C376.494 13.1035 377.014 11.3354 377.134 9.91225C378.72 10.1129 380.068 10.4452 381.177 10.9217C381.773 11.1975 382.049 11.5361 382.011 11.9311C382.011 12.2508 381.773 12.464 381.297 12.5831C380.739 12.7398 380.344 13.022 380.105 13.417C377.328 19.5612 374.576 24.1443 371.836 27.1537C373.742 26.997 375.723 26.7587 377.786 26.439C377.466 24.8904 377.033 23.348 376.475 21.7995C376.319 21.4045 376.394 21.1286 376.714 20.9656C377.071 20.765 377.409 20.8653 377.723 21.2603C378.989 22.6897 380.005 24.2571 380.757 25.9562C381.353 27.3418 381.648 28.4766 381.648 29.3481C381.648 30.2196 381.309 30.9343 380.638 31.486C380.043 32.0816 379.51 32.3199 379.033 32.2008C378.519 32.1192 378.262 31.6678 378.262 30.834C378.225 29.9249 378.162 29.0283 378.087 28.1568C376.5 28.7901 374.262 29.486 371.366 30.2384C370.732 30.439 370.331 30.7964 370.174 31.3105C370.018 31.8246 369.717 32.0816 369.284 32.0816C368.927 32.1192 368.588 31.8058 368.275 31.1286C367.761 30.0565 367.384 28.7525 367.146 27.2039C367.898 27.1662 368.532 26.8653 369.052 26.3136C370.281 24.9656 371.566 23.0847 372.92 20.6646C373.554 19.5173 374.13 18.4264 374.645 17.3919C373.729 17.7493 372.645 18.1443 371.372 18.5831C370.739 18.8214 370.337 19.2352 370.181 19.8308C370.099 20.1882 369.905 20.4076 369.585 20.4828C369.19 20.5204 368.851 20.3073 368.576 19.8308C367.898 18.7211 367.366 17.3731 366.971 15.7869C368.162 15.5863 368.989 14.9781 369.466 13.9436L369.453 13.9562Z" fill="black"/>
<path d="M409.892 27.8747C411.516 23.4734 412.413 19.2101 412.569 15.091C414.475 15.2101 416.137 15.5675 417.566 16.1631C418.281 16.4828 418.613 16.8778 418.576 17.3543C418.576 17.7493 418.256 18.0314 417.623 18.1882C417.027 18.3449 416.613 18.7211 416.375 19.3167C415.027 22.765 413.497 25.6177 411.798 27.881C414.732 27.881 416.143 26.6521 416.024 24.1945C417.968 24.6709 419.61 25.6804 420.958 27.2289C421.435 27.7869 421.673 28.3199 421.673 28.834C421.673 29.4672 421.234 29.787 420.363 29.787H402.4C401.09 29.787 399.742 29.8685 398.356 30.0252C397.641 30.1067 397.109 29.8246 396.751 29.1913C396.394 28.5957 396.218 28.0816 396.218 27.6427C398.199 27.7995 400.262 27.881 402.406 27.881H409.899L409.892 27.8747ZM407.221 10.6834C406.745 8.38246 405.792 6.24452 404.369 4.25705C404.093 3.89968 404.093 3.57993 404.369 3.30407C404.607 3.02821 404.946 3.0094 405.378 3.24137C407.598 4.27586 409.322 5.44201 410.551 6.75236C411.384 7.66773 411.742 8.51413 411.623 9.31037C411.422 10.2257 410.989 10.9781 410.312 11.5674C410.112 11.7681 409.899 11.9248 409.66 12.0439H410.613C413.623 12.0439 415.052 10.7775 414.895 8.23826C416.914 8.67714 418.62 9.70535 420.011 11.3292C420.526 11.9248 420.783 12.4577 420.783 12.9342C420.783 13.6113 420.325 13.9436 419.416 13.9436H402.939C401.786 13.9436 400.582 14.0251 399.309 14.1819C398.594 14.2634 398.062 13.9812 397.704 13.348C397.347 12.7524 397.171 12.2383 397.171 11.7994C399.033 11.9561 400.958 12.0377 402.939 12.0377H407.936C407.579 11.7994 407.341 11.3417 407.221 10.6709V10.6834ZM417.748 39.5299V48.3889C417.786 49.9375 417.848 51.5237 417.93 53.1476C418.011 54.0567 417.673 54.7714 416.921 55.2918C416.206 55.7307 415.134 55.9438 413.71 55.9438V51.0661H404.256V54.2761C404.256 55.1476 403.88 55.7996 403.127 56.2385C402.375 56.6335 401.366 56.8341 400.093 56.8341C400.25 54.4955 400.331 51.6993 400.331 48.4454V40.6522C400.331 38.0754 400.231 35.5613 400.036 33.0973C401.942 33.5738 403.585 34.4453 404.971 35.7117H410.444C412.939 35.7117 414.131 34.7211 414.011 32.7399C416.149 33.3356 417.899 34.2447 419.247 35.4735C419.642 35.8685 419.823 36.2886 419.779 36.7212C419.742 37.0785 419.441 37.3732 418.889 37.6114C418.137 37.9312 417.761 38.5644 417.761 39.5174L417.748 39.5299ZM403.178 25.3167C402.939 22.5017 402.068 19.7869 400.563 17.1662C400.362 16.7712 400.381 16.4703 400.62 16.2759C400.895 15.9562 401.253 15.9562 401.692 16.2759C403.949 17.9813 405.598 19.7054 406.626 21.4484C407.341 22.6396 407.554 23.6678 407.278 24.5393C407.002 25.3355 406.544 25.9876 405.911 26.5017C405.234 26.9782 404.62 27.0973 404.068 26.859C403.51 26.7023 403.215 26.1882 403.178 25.3104V25.3167ZM404.243 37.624V49.1601H413.698V37.624H404.243ZM426.783 11.4608V45.1851C426.783 49.5488 426.82 52.7965 426.902 54.9407C426.939 55.9689 426.626 56.7275 425.949 57.1977C425.153 57.7119 423.968 57.9689 422.381 57.9689C422.657 55.273 422.795 51.0096 422.795 45.1789V12.1693C422.795 10.6646 422.657 8.97808 422.381 7.116C424.168 7.59249 425.792 8.40754 427.259 9.55488H431.065C433.247 9.55488 434.338 8.6019 434.338 6.7022C436.2 7.2602 437.849 8.15049 439.272 9.37933C439.823 9.81821 440.062 10.2696 439.986 10.7461C439.905 11.185 439.548 11.4797 438.914 11.6364C438.237 11.7931 437.742 12.2132 437.428 12.8841C435.523 18.4327 433.861 22.696 432.432 25.6678C432.156 26.0628 432.212 26.4014 432.613 26.6772C437.096 30.6396 439.253 34.765 439.096 39.0472C439.096 41.624 438.563 43.5488 437.491 44.8152C436.338 46.3638 434.676 47.1726 432.494 47.2541C431.936 47.2917 431.623 47.0535 431.541 46.5394C431.504 45.9062 431.165 45.367 430.532 44.9344C429.855 44.4955 428.964 44.1193 427.855 43.8058C427.378 43.7243 427.178 43.4673 427.259 43.0347C427.297 42.6021 427.579 42.4202 428.093 42.5017C429.798 42.5833 431.228 42.5394 432.375 42.3826C433.999 42.345 434.833 41.2165 434.87 38.9908C435.228 35.1036 433.817 31.1224 430.645 27.0346C430.287 26.6772 430.168 26.3199 430.287 25.9625C431.836 20.8089 432.902 15.9687 433.497 11.4483H426.776L426.783 11.4608Z" fill="black"/>
<path d="M129.49 76.2198C129.534 76.0066 129.596 75.8311 129.678 75.6994C129.753 75.574 129.853 75.48 129.96 75.4048C130.079 75.3295 130.204 75.2731 130.336 75.2355C130.555 75.1728 130.687 75.016 130.687 74.8217C130.687 74.6085 130.537 74.3954 130.198 74.3954H126.455C126.117 74.3954 125.966 74.6085 125.966 74.8217C125.966 75.016 126.098 75.1728 126.311 75.2355C126.474 75.2856 126.618 75.3483 126.737 75.4298C126.844 75.4988 126.932 75.5928 127.007 75.7182C127.082 75.8499 127.139 76.0192 127.176 76.2261C127.214 76.4518 127.239 76.7527 127.239 77.1226V87.2732C127.239 87.6431 127.22 87.944 127.176 88.1697C127.139 88.3766 127.082 88.5522 127.007 88.6776C126.938 88.7967 126.844 88.8907 126.737 88.966C126.618 89.0475 126.474 89.1102 126.317 89.1603C126.098 89.223 125.966 89.3797 125.966 89.5741C125.966 89.7873 126.117 90.0004 126.455 90.0004H130.198C130.537 90.0004 130.687 89.7873 130.687 89.5741C130.687 89.3797 130.555 89.223 130.336 89.1603C130.204 89.1227 130.079 89.0663 129.96 88.991C129.847 88.9221 129.753 88.8218 129.678 88.6964C129.596 88.571 129.534 88.3954 129.49 88.176C129.446 87.944 129.421 87.6431 129.421 87.2732V77.1226C129.421 76.7527 129.446 76.4518 129.49 76.2198Z" fill="black"/>
<path d="M144.487 86.0318C144.286 86.0318 144.117 86.1446 144.035 86.3453C143.885 86.6713 143.697 86.9848 143.484 87.2857C143.27 87.5804 143.02 87.8374 142.737 88.0569C142.462 88.2763 142.148 88.4456 141.803 88.571C141.465 88.6964 141.07 88.7591 140.631 88.7591H138.386V77.1226C138.386 76.7527 138.411 76.4518 138.455 76.2198C138.499 76.0004 138.562 75.8311 138.643 75.6994C138.719 75.5803 138.813 75.4863 138.919 75.4236C139.038 75.3483 139.189 75.2856 139.346 75.2355C139.565 75.1728 139.697 75.016 139.697 74.8217C139.697 74.6085 139.546 74.3954 139.208 74.3954H135.421C135.082 74.3954 134.932 74.6085 134.932 74.8217C134.932 75.016 135.063 75.1728 135.277 75.2355C135.44 75.2856 135.584 75.3483 135.703 75.4298C135.81 75.4988 135.897 75.5928 135.973 75.7182C136.048 75.8499 136.104 76.0192 136.142 76.2261C136.179 76.4518 136.204 76.7527 136.204 77.1226V87.2732C136.204 87.6431 136.186 87.944 136.142 88.1697C136.104 88.3766 136.048 88.5522 135.973 88.6776C135.904 88.7967 135.81 88.8907 135.703 88.966C135.584 89.0475 135.44 89.1102 135.283 89.1603C135.063 89.223 134.932 89.3797 134.932 89.5741C134.932 89.7873 135.082 90.0004 135.421 90.0004H143.96C144.198 90.0004 144.399 89.85 144.468 89.6243C144.587 89.223 144.687 88.7716 144.763 88.2763C144.85 87.6995 144.894 87.1101 144.894 86.5271C144.894 86.1634 144.668 86.038 144.48 86.038L144.487 86.0318Z" fill="black"/>
<path d="M158.311 74.3954H155.471C155.202 74.3954 155.026 74.5646 155.026 74.8217C155.026 75.0411 155.164 75.2041 155.383 75.2418C155.628 75.2856 155.785 75.3797 155.866 75.5364C155.929 75.6555 155.966 75.8938 155.816 76.3766L152.675 86.8406L149.528 77.0662C149.427 76.7339 149.358 76.433 149.308 76.1885C149.258 75.9189 149.27 75.7684 149.296 75.6869C149.321 75.5866 149.377 75.5113 149.465 75.4486C149.571 75.3671 149.741 75.2982 149.979 75.2292C150.18 75.1665 150.292 75.0098 150.292 74.8217C150.292 74.5709 150.111 74.3954 149.847 74.3954H145.935C145.615 74.3954 145.465 74.6085 145.465 74.8217C145.465 75.016 145.584 75.1665 145.778 75.2292C145.96 75.2919 146.111 75.3671 146.236 75.4486C146.349 75.5239 146.455 75.6242 146.549 75.7559C146.65 75.8938 146.756 76.0944 146.863 76.3389C146.976 76.596 147.107 76.9408 147.264 77.3609L151.314 89.4424C151.427 89.7747 151.734 89.9942 152.086 89.9942C152.437 89.9942 152.712 89.8876 152.938 89.687C153.151 89.4926 153.314 89.1854 153.446 88.7465L157.126 76.6336C157.208 76.3389 157.296 76.107 157.383 75.9377C157.471 75.7809 157.559 75.6555 157.659 75.574C157.753 75.4925 157.866 75.4236 157.985 75.3797C158.129 75.3233 158.28 75.2794 158.455 75.2355C158.656 75.1728 158.769 75.016 158.769 74.828C158.769 74.5772 158.587 74.4016 158.324 74.4016L158.311 74.3954Z" fill="black"/>
<path d="M171.835 86.0318C171.615 86.0004 171.427 86.1195 171.364 86.3264C171.176 86.759 170.957 87.129 170.719 87.4174C170.48 87.712 170.211 87.9628 169.922 88.1634C169.64 88.3578 169.327 88.5083 168.988 88.6086C168.65 88.7089 168.28 88.7591 167.891 88.7591H165.433V82.4267H167.803C168.261 82.4267 168.618 82.5396 168.869 82.759C169.139 82.991 169.364 83.3484 169.552 83.8123C169.646 84.0318 169.828 84.1383 170.035 84.1007C170.198 84.0694 170.38 83.9314 170.38 83.6368V79.9816C170.38 79.6869 170.204 79.549 170.035 79.5176C169.954 79.5051 169.684 79.4863 169.546 79.8374C169.364 80.3076 169.139 80.6587 168.875 80.8781C168.625 81.085 168.267 81.1916 167.803 81.1916H165.433V75.6305H167.784C168.186 75.6305 168.549 75.6744 168.863 75.7621C169.17 75.8499 169.44 75.969 169.665 76.1132C169.897 76.2637 170.098 76.4455 170.273 76.6461C170.455 76.853 170.631 77.1164 170.806 77.4173C170.969 77.7433 171.201 77.7371 171.295 77.712C171.383 77.6932 171.603 77.6179 171.646 77.2668C171.678 76.8405 171.684 76.4142 171.678 75.9941C171.678 75.643 171.653 75.2668 171.621 74.8844C171.603 74.6085 171.371 74.3954 171.095 74.3954H162.474C162.135 74.3954 161.985 74.6085 161.985 74.8217C161.985 75.016 162.117 75.1728 162.33 75.2355C162.493 75.2856 162.637 75.3483 162.756 75.4298C162.863 75.4988 162.951 75.5928 163.026 75.7182C163.101 75.8499 163.157 76.0192 163.195 76.2324C163.233 76.4581 163.258 76.759 163.258 77.1289V87.2794C163.258 87.6493 163.239 87.9503 163.195 88.176C163.157 88.3891 163.101 88.5584 163.026 88.6838C162.957 88.8029 162.863 88.9033 162.756 88.9722C162.637 89.0537 162.493 89.1164 162.336 89.1666C162.117 89.2293 161.985 89.386 161.985 89.5804C161.985 89.7935 162.135 90.0067 162.474 90.0067H171.233C171.471 90.0067 171.672 89.8562 171.741 89.6305C171.86 89.2293 171.96 88.7716 172.035 88.27C172.123 87.6869 172.173 87.1039 172.186 86.5333C172.186 86.1384 171.91 86.0631 171.828 86.0506L171.835 86.0318Z" fill="black"/>
<path d="M187.634 89.1603C187.484 89.1102 187.346 89.0475 187.22 88.9785C187.101 88.9095 186.969 88.8155 186.844 88.7089C186.712 88.5961 186.593 88.4769 186.487 88.3578C186.386 88.2387 186.286 88.107 186.198 87.9503L183.396 83.1917C183.208 82.8907 182.976 82.6399 182.719 82.4393C182.7 82.4205 182.675 82.408 182.656 82.3891C182.919 82.3139 183.17 82.2324 183.415 82.1509C184.01 81.9252 184.518 81.6556 184.926 81.3358C185.346 81.0098 185.672 80.6148 185.897 80.1697C186.123 79.7246 186.248 79.1603 186.28 78.502C186.28 78.0004 186.198 77.5114 186.042 77.0474C185.879 76.5709 185.603 76.1321 185.214 75.7433C184.832 75.3484 184.311 75.0349 183.672 74.7966C183.045 74.5647 182.255 74.433 181.321 74.4016H176.48C176.142 74.4016 175.991 74.6148 175.991 74.828C175.991 75.0223 176.123 75.1791 176.33 75.2355C176.518 75.2982 176.675 75.3734 176.794 75.4549C176.9 75.5302 176.988 75.6305 177.057 75.7496C177.126 75.875 177.176 76.0506 177.208 76.2574C177.239 76.4894 177.258 76.7778 177.258 77.1227V87.2732C177.258 87.6117 177.239 87.9064 177.208 88.1384C177.176 88.3516 177.126 88.5271 177.051 88.665C176.988 88.7842 176.9 88.8845 176.8 88.9472C176.675 89.0287 176.518 89.0976 176.336 89.1603C176.117 89.223 175.985 89.3798 175.985 89.5741C175.985 89.7873 176.136 90.0005 176.474 90.0005H180.261C180.6 90.0005 180.75 89.7873 180.75 89.5741C180.75 89.3798 180.625 89.223 180.418 89.1666C180.236 89.1039 180.085 89.0287 179.96 88.9472C179.853 88.8782 179.759 88.7779 179.678 88.6462C179.596 88.5146 179.534 88.339 179.496 88.1384C179.458 87.919 179.433 87.6305 179.433 87.2732V82.897H179.496C180.336 82.897 180.386 82.897 180.669 83.0788C180.888 83.2355 181.095 83.4863 181.289 83.8186L184.543 89.4675C184.65 89.6306 184.788 89.7622 184.944 89.85C185.107 89.9503 185.333 89.9942 185.634 89.9942H187.502C187.772 89.9942 187.948 89.8249 187.948 89.5679C187.948 89.3798 187.828 89.223 187.634 89.1603ZM183.722 79.7434C183.571 80.0945 183.346 80.4079 183.045 80.6775C182.737 80.9597 182.336 81.2105 181.847 81.4236C181.39 81.6242 180.443 81.9126 179.772 81.9126H179.44V75.6242H180.562C181.164 75.6242 181.678 75.6869 182.092 75.8186C182.499 75.944 182.844 76.1258 183.12 76.364C183.39 76.596 183.596 76.9032 183.728 77.2794C183.866 77.6681 183.935 78.1258 183.935 78.6399C183.935 79.0161 183.86 79.386 183.709 79.7371L183.722 79.7434Z" fill="black"/>
<path d="M121.057 83.2167C120.668 82.7841 120.242 82.4268 119.791 82.1446C119.352 81.875 118.825 81.5616 118.223 81.223C117.602 80.897 117.07 80.6086 116.656 80.3578C116.254 80.1195 115.878 79.8249 115.54 79.4863C115.327 79.2731 115.151 78.9973 115.019 78.6775C114.888 78.3515 114.825 77.9377 114.825 77.4487C114.825 77.1603 114.869 76.8719 114.963 76.5835C115.051 76.3013 115.182 76.0506 115.358 75.8311C115.527 75.618 115.74 75.4424 115.997 75.3107C116.518 75.0474 117.289 75.0411 117.885 75.3546C118.198 75.5176 118.499 75.7747 118.794 76.1133C119.013 76.3766 119.214 76.6462 119.383 76.9095C119.559 77.1854 119.759 77.5114 119.966 77.875C120.066 78.0506 120.198 78.1446 120.355 78.1446C120.455 78.1446 120.606 78.1007 120.744 77.8876C120.825 77.7434 120.894 77.5741 120.95 77.3797C121.001 77.2042 121.044 77.0223 121.082 76.8405C121.12 76.6587 121.151 76.4706 121.17 76.2763C121.189 76.1321 121.201 75.9879 121.214 75.8437C121.226 75.6618 121.151 75.4926 121.007 75.386C120.794 75.223 120.568 75.0662 120.342 74.9095C120.066 74.7214 119.759 74.5521 119.439 74.3954C119.107 74.2386 118.737 74.107 118.33 74.0129C117.922 73.9126 117.477 73.8625 116.994 73.8625C116.361 73.8625 115.778 73.969 115.27 74.1697C114.756 74.3766 114.311 74.6712 113.954 75.0411C113.59 75.4111 113.308 75.8625 113.107 76.3828C112.913 76.897 112.812 77.4738 112.812 78.0945C112.812 78.9158 113.007 79.6493 113.389 80.2763C113.765 80.897 114.28 81.4174 114.919 81.8312C115.107 81.944 115.37 82.107 115.715 82.3139C116.066 82.5271 116.543 82.7967 117.145 83.1227C117.684 83.4174 118.148 83.687 118.524 83.9127C118.875 84.1258 119.182 84.3829 119.433 84.6713C119.621 84.9033 119.772 85.1666 119.866 85.4613C119.966 85.7622 120.016 86.107 120.016 86.4958C120.016 86.9221 119.954 87.2983 119.828 87.6243C119.703 87.9503 119.54 88.2262 119.333 88.4519C119.132 88.6713 118.856 88.8657 118.518 89.0224C118.186 89.1791 117.772 89.2544 117.301 89.2544C116.913 89.2544 116.524 89.1729 116.148 89.0161C115.778 88.8594 115.433 88.6212 115.138 88.3077C114.982 88.1384 114.844 87.9628 114.737 87.7936C114.631 87.618 114.524 87.4237 114.43 87.2168C114.33 87.0099 114.248 86.8155 114.179 86.6462C114.11 86.4769 114.029 86.2826 113.947 86.0694C113.859 85.8562 113.734 85.7434 113.571 85.7309C113.402 85.7183 113.264 85.8186 113.151 86.0255C113.088 86.1509 113.019 86.3139 112.944 86.5146C112.869 86.7152 112.8 86.9346 112.731 87.1729C112.662 87.4048 112.606 87.6494 112.562 87.8876C112.53 88.0443 112.512 88.1885 112.493 88.3265C112.468 88.5522 112.568 88.7716 112.75 88.9033C113.477 89.4174 114.217 89.8061 114.957 90.0694C115.759 90.3516 116.505 90.4958 117.176 90.4958C117.847 90.4958 118.468 90.4017 119.032 90.2262C119.596 90.0444 120.104 89.781 120.53 89.4487C120.95 89.1102 121.308 88.6274 121.596 88.0193C121.885 87.4111 122.029 86.7152 122.029 85.944C122.029 85.4299 121.954 84.9409 121.809 84.4832C121.659 84.0192 121.408 83.5866 121.051 83.1979L121.057 83.2167Z" fill="black"/>
<path d="M210.612 89.1603C210.462 89.1102 210.324 89.0475 210.199 88.9785C210.079 88.9095 209.948 88.8155 209.822 88.7089C209.691 88.5961 209.572 88.4769 209.465 88.3578C209.365 88.245 209.264 88.107 209.177 87.9503L206.374 83.1917C206.186 82.8907 205.954 82.6399 205.697 82.4393C205.678 82.4205 205.659 82.408 205.634 82.3891C205.898 82.3139 206.148 82.2324 206.393 82.1509C206.989 81.9252 207.496 81.6556 207.904 81.3358C208.324 81.0098 208.65 80.6148 208.876 80.1697C209.101 79.7183 209.227 79.1603 209.258 78.502C209.258 78.0004 209.177 77.5114 209.02 77.0474C208.857 76.5772 208.581 76.1321 208.192 75.7433C207.81 75.3484 207.29 75.0349 206.65 74.7966C206.023 74.5647 205.233 74.433 204.299 74.4016H199.459C199.12 74.4016 198.97 74.6148 198.97 74.828C198.97 75.0223 199.101 75.1791 199.308 75.2355C199.496 75.2982 199.653 75.3734 199.779 75.4549C199.885 75.5302 199.973 75.6305 200.042 75.7496C200.111 75.8813 200.161 76.0506 200.192 76.2574C200.224 76.4894 200.242 76.7778 200.242 77.1227V87.2732C200.242 87.6117 200.224 87.9064 200.192 88.1384C200.161 88.3516 200.111 88.5271 200.036 88.665C199.973 88.7842 199.885 88.8845 199.785 88.9472C199.659 89.0287 199.503 89.0976 199.321 89.1603C199.101 89.223 198.97 89.3798 198.97 89.5741C198.97 89.7873 199.12 90.0005 199.459 90.0005H203.246C203.584 90.0005 203.735 89.7873 203.735 89.5741C203.735 89.3798 203.609 89.223 203.402 89.1666C203.221 89.1039 203.07 89.0287 202.945 88.9472C202.838 88.8782 202.744 88.7779 202.663 88.6462C202.581 88.5146 202.518 88.339 202.481 88.1384C202.443 87.919 202.418 87.6305 202.418 87.2732V82.897H202.481C203.321 82.897 203.371 82.897 203.653 83.0788C203.873 83.2355 204.079 83.4863 204.274 83.8186L207.528 89.4675C207.634 89.6306 207.772 89.7622 207.929 89.85C208.092 89.9503 208.318 89.9942 208.619 89.9942H210.487C210.757 89.9942 210.932 89.8249 210.932 89.5679C210.932 89.3798 210.813 89.223 210.619 89.1603H210.612ZM206.694 79.7434C206.543 80.0945 206.318 80.4079 206.017 80.6775C205.71 80.9597 205.308 81.2105 204.819 81.4236C204.362 81.6242 203.415 81.9126 202.744 81.9126H202.412V75.6242H203.534C204.136 75.6242 204.65 75.6869 205.064 75.8186C205.471 75.944 205.816 76.1258 206.092 76.364C206.362 76.596 206.568 76.9032 206.7 77.2794C206.838 77.6681 206.913 78.1258 206.913 78.6399C206.913 79.0161 206.838 79.386 206.688 79.7371L206.694 79.7434Z" fill="black"/>
<path d="M223.453 86.0318C223.233 85.9942 223.045 86.1196 222.982 86.3265C222.794 86.7591 222.575 87.129 222.337 87.4174C222.098 87.712 221.829 87.9628 221.54 88.1635C221.258 88.3578 220.945 88.5083 220.606 88.6086C220.268 88.7089 219.898 88.7591 219.509 88.7591H217.051V82.4268H219.421C219.879 82.4268 220.236 82.5396 220.487 82.759C220.757 82.991 220.982 83.3484 221.17 83.8123C221.283 84.0694 221.49 84.1321 221.653 84.1007C221.816 84.0694 221.998 83.9315 221.998 83.6368V79.9816C221.998 79.6869 221.822 79.549 221.653 79.5177C221.572 79.5051 221.302 79.4863 221.164 79.8374C220.982 80.3076 220.757 80.6587 220.493 80.8782C220.242 81.0851 219.885 81.1916 219.421 81.1916H217.051V75.6305H219.402C219.804 75.6305 220.167 75.6744 220.481 75.7621C220.788 75.8499 221.058 75.969 221.283 76.1132C221.515 76.2637 221.716 76.4455 221.891 76.6462C222.073 76.8531 222.249 77.1164 222.424 77.4173C222.587 77.7371 222.819 77.7308 222.913 77.712C223.001 77.6932 223.221 77.618 223.264 77.2669C223.296 76.8468 223.302 76.4205 223.296 75.9941C223.29 75.643 223.271 75.2606 223.239 74.8719C223.221 74.6023 222.989 74.3891 222.719 74.3891H214.086C213.747 74.3891 213.597 74.6023 213.597 74.8154C213.597 75.0098 213.728 75.1665 213.942 75.2292C214.105 75.2794 214.249 75.3421 214.368 75.4236C214.474 75.4926 214.562 75.5866 214.637 75.712C214.713 75.8437 214.769 76.0129 214.807 76.2198C214.844 76.4455 214.869 76.7465 214.869 77.1164V87.2669C214.869 87.6368 214.851 87.9377 214.807 88.1635C214.769 88.3704 214.713 88.5459 214.637 88.6713C214.568 88.7904 214.474 88.8845 214.368 88.9597C214.249 89.0412 214.105 89.1039 213.948 89.1541C213.728 89.2168 213.597 89.3735 213.597 89.5679C213.597 89.781 213.747 89.9942 214.086 89.9942H222.851C223.083 89.9942 223.283 89.8437 223.346 89.6243C223.465 89.223 223.565 88.7591 223.641 88.2575C223.728 87.6807 223.779 87.0914 223.791 86.5208C223.791 86.1258 223.515 86.0506 223.434 86.0381L223.453 86.0318Z" fill="black"/>
<path d="M244.763 76.2198C244.807 76.0066 244.869 75.8311 244.951 75.6994C245.026 75.574 245.127 75.48 245.233 75.4048C245.352 75.3295 245.478 75.2731 245.609 75.2355C245.829 75.1728 245.96 75.016 245.96 74.8217C245.96 74.6085 245.81 74.3954 245.471 74.3954H241.728C241.39 74.3954 241.239 74.6085 241.239 74.8217C241.239 75.016 241.371 75.1728 241.584 75.2355C241.747 75.2856 241.891 75.3483 242.011 75.4298C242.117 75.4988 242.205 75.5928 242.28 75.7182C242.355 75.8499 242.412 76.0192 242.449 76.2261C242.487 76.4518 242.512 76.7527 242.512 77.1226V87.2732C242.512 87.6431 242.493 87.944 242.449 88.1697C242.412 88.3766 242.355 88.5522 242.28 88.6776C242.211 88.7967 242.117 88.8907 242.011 88.966C241.891 89.0475 241.747 89.1102 241.59 89.1603C241.371 89.223 241.239 89.3797 241.239 89.5741C241.239 89.7873 241.39 90.0004 241.728 90.0004H245.471C245.81 90.0004 245.96 89.7873 245.96 89.5741C245.96 89.3797 245.829 89.223 245.609 89.1603C245.478 89.1227 245.352 89.0663 245.233 88.991C245.12 88.9221 245.026 88.8218 244.951 88.6964C244.869 88.571 244.807 88.3954 244.763 88.176C244.719 87.944 244.694 87.6431 244.694 87.2732V77.1226C244.694 76.7527 244.719 76.4518 244.763 76.2198Z" fill="black"/>
<path d="M236.318 83.2167C235.929 82.7841 235.503 82.4267 235.051 82.1446C234.619 81.875 234.092 81.5678 233.484 81.2229C232.863 80.8969 232.337 80.6085 231.917 80.3577C231.515 80.1195 231.139 79.8248 230.801 79.4862C230.581 79.2668 230.412 78.9972 230.28 78.6775C230.149 78.3514 230.086 77.9377 230.086 77.4486C230.086 77.1602 230.13 76.8718 230.224 76.5834C230.312 76.3013 230.443 76.0505 230.619 75.8311C230.788 75.6179 231.001 75.4423 231.258 75.3107C231.772 75.0474 232.55 75.0411 233.145 75.3546C233.459 75.5176 233.76 75.7746 234.055 76.1132C234.274 76.3765 234.475 76.6461 234.644 76.9094C234.819 77.1853 235.02 77.5113 235.227 77.8812C235.327 78.0568 235.459 78.1446 235.616 78.1508C235.722 78.1508 235.866 78.1069 236.004 77.9C236.086 77.7558 236.155 77.5866 236.211 77.3922C236.261 77.2166 236.305 77.0348 236.343 76.853C236.381 76.6712 236.412 76.4831 236.431 76.2887C236.45 76.1445 236.462 76.0003 236.475 75.8561C236.487 75.6743 236.412 75.505 236.268 75.3985C236.055 75.2354 235.829 75.0787 235.603 74.922C235.327 74.7339 235.02 74.5646 234.694 74.4079C234.362 74.2511 233.992 74.1195 233.584 74.0254C233.177 73.9251 232.732 73.8749 232.249 73.8749C231.616 73.8749 231.033 73.9815 230.525 74.1821C230.011 74.389 229.565 74.6837 229.208 75.0536C228.844 75.4235 228.562 75.8749 228.362 76.3953C228.167 76.9094 228.067 77.4862 228.067 78.1069C228.067 78.9283 228.261 79.6618 228.644 80.2888C229.02 80.9095 229.534 81.4298 230.174 81.8436C230.362 81.9565 230.625 82.1195 230.97 82.3264C231.315 82.5333 231.797 82.8092 232.399 83.1352C232.932 83.4298 233.396 83.6994 233.779 83.9251C234.13 84.1383 234.437 84.3954 234.688 84.6838C234.882 84.9157 235.026 85.1791 235.12 85.4737C235.221 85.7747 235.271 86.1195 235.271 86.5082C235.271 86.9283 235.208 87.3107 235.083 87.6368C234.957 87.9628 234.794 88.2386 234.587 88.4644C234.387 88.6901 234.111 88.8781 233.772 89.0349C233.44 89.1916 233.026 89.2669 232.556 89.2669C232.161 89.2669 231.779 89.1854 231.402 89.0286C231.033 88.8719 230.688 88.6336 230.387 88.3201C230.23 88.1446 230.092 87.9753 229.992 87.806C229.885 87.6305 229.779 87.4361 229.685 87.2292C229.584 87.0223 229.503 86.828 229.434 86.6587C229.365 86.4894 229.283 86.2951 229.202 86.0819C229.114 85.8687 228.989 85.7559 228.826 85.7433C228.663 85.7433 228.518 85.8311 228.406 86.038C228.343 86.1634 228.274 86.3264 228.199 86.527C228.123 86.7214 228.054 86.9408 227.986 87.1853C227.917 87.4236 227.866 87.6618 227.816 87.9001C227.785 88.0568 227.766 88.2073 227.747 88.339C227.722 88.5647 227.816 88.7841 228.004 88.9158C228.732 89.4299 229.471 89.8186 230.211 90.0819C231.014 90.364 231.76 90.5082 232.431 90.5082C233.102 90.5082 233.728 90.4142 234.286 90.2386C234.851 90.0568 235.359 89.7935 235.785 89.4612C236.199 89.1227 236.556 88.6399 236.851 88.0317C237.139 87.4236 237.283 86.7277 237.283 85.9565C237.283 85.4424 237.208 84.9534 237.064 84.4957C236.913 84.0317 236.663 83.5991 236.305 83.2104L236.318 83.2167Z" fill="black"/>
<path d="M260.174 76.5521C259.559 75.8499 258.757 75.3044 257.785 74.9408C256.826 74.5772 255.678 74.3954 254.374 74.3954H250.675C250.337 74.3954 250.186 74.6085 250.186 74.8217C250.186 75.016 250.318 75.1728 250.531 75.2355C250.694 75.2856 250.838 75.3483 250.957 75.4298C251.064 75.4988 251.152 75.5928 251.227 75.7182C251.302 75.8499 251.359 76.0192 251.396 76.2261C251.434 76.4518 251.459 76.7527 251.459 77.1226V87.2732C251.459 87.6431 251.44 87.944 251.396 88.1697C251.359 88.3766 251.302 88.5522 251.227 88.6776C251.158 88.7967 251.064 88.8907 250.957 88.966C250.838 89.0475 250.694 89.1102 250.537 89.1603C250.318 89.223 250.186 89.3797 250.186 89.5741C250.186 89.7873 250.337 90.0004 250.675 90.0004H255.578C256.5 90.0004 257.365 89.8186 258.142 89.4613C258.92 89.1039 259.603 88.5772 260.174 87.9064C260.751 87.223 261.202 86.408 261.515 85.4863C261.823 84.5647 261.979 83.5302 261.979 82.4017C261.979 81.1603 261.835 80.0506 261.547 79.085C261.258 78.1132 260.794 77.2606 260.168 76.5646L260.174 76.5521ZM259.672 82.5396C259.672 83.6117 259.572 84.5333 259.371 85.2731C259.171 86.0067 258.901 86.6211 258.562 87.1101C258.186 87.6305 257.716 88.0443 257.164 88.3265C256.613 88.6149 255.961 88.7591 255.24 88.7591H253.641V75.6305H254.293C255.227 75.6305 256.042 75.7684 256.719 76.0317C257.378 76.295 257.942 76.7026 258.381 77.248C258.782 77.7433 259.102 78.4267 259.327 79.2669C259.559 80.1195 259.672 81.223 259.672 82.5396Z" fill="black"/>
<path d="M292.074 74.3954H289.258C288.989 74.3954 288.813 74.5646 288.813 74.8217C288.813 75.0098 288.932 75.1665 289.114 75.2292C289.302 75.3044 289.465 75.3922 289.591 75.4863C289.697 75.5615 289.779 75.6744 289.835 75.806C289.904 75.9628 289.954 76.1697 289.986 76.4204C290.017 76.69 290.036 77.0286 290.036 77.4299V85.9189L283.409 74.5396C283.359 74.458 283.271 74.4016 283.171 74.4016H280.675C280.406 74.4016 280.23 74.5709 280.23 74.828C280.23 74.922 280.268 75.1038 280.506 75.2167C280.682 75.3107 280.826 75.4048 280.939 75.4925C281.033 75.5678 281.114 75.6744 281.183 75.806C281.252 75.9502 281.309 76.1446 281.34 76.3828C281.371 76.6461 281.39 76.9972 281.39 77.4236V86.9722C281.39 87.386 281.371 87.7308 281.34 88.0004C281.309 88.2512 281.258 88.4581 281.189 88.6149C281.127 88.7528 281.052 88.8656 280.951 88.9471C280.845 89.0349 280.713 89.1102 280.544 89.1666C280.343 89.2356 280.23 89.386 280.23 89.5741C280.23 89.8249 280.412 90.0004 280.675 90.0004H283.516C283.785 90.0004 283.961 89.8312 283.961 89.5741C283.961 89.386 283.848 89.2293 283.66 89.1666C283.472 89.0914 283.315 89.0036 283.202 88.9158C283.095 88.8343 283.014 88.7214 282.945 88.5898C282.87 88.4456 282.813 88.245 282.776 87.9942C282.738 87.7308 282.713 87.386 282.713 86.9722V77.8248L289.854 89.8813C289.948 90.0443 290.08 90.1509 290.255 90.2073C290.349 90.2387 290.45 90.2575 290.544 90.2575C290.6 90.2575 290.663 90.2575 290.719 90.2387C290.87 90.2073 291.008 90.1446 291.133 90.0381C291.284 89.9127 291.359 89.7434 291.359 89.549V77.4236C291.359 77.0161 291.371 76.6775 291.403 76.4079C291.428 76.1571 291.478 75.9565 291.541 75.7997C291.603 75.6618 291.685 75.5427 291.791 75.4612C291.904 75.3671 292.042 75.2919 292.205 75.2292C292.406 75.1602 292.519 75.0098 292.519 74.8217C292.519 74.5709 292.337 74.3954 292.074 74.3954Z" fill="black"/>
<path d="M276.049 86.0318C275.829 86.0004 275.641 86.1196 275.578 86.3265C275.39 86.7591 275.171 87.1227 274.933 87.4174C274.694 87.712 274.425 87.9628 274.136 88.1635C273.854 88.3578 273.541 88.5083 273.208 88.6086C272.87 88.7089 272.5 88.7591 272.111 88.7591H269.654V82.4268H272.023C272.481 82.4268 272.839 82.5396 273.089 82.759C273.359 82.9973 273.585 83.3484 273.773 83.8123C273.867 84.0318 274.042 84.1384 274.255 84.1007C274.418 84.0694 274.6 83.9315 274.6 83.6368V79.9816C274.6 79.6869 274.425 79.549 274.255 79.5177C274.174 79.5051 273.904 79.4863 273.766 79.8374C273.585 80.3076 273.359 80.6587 273.096 80.8782C272.845 81.0851 272.487 81.1916 272.023 81.1916H269.654V75.6305H272.005C272.406 75.6305 272.77 75.6744 273.083 75.7621C273.39 75.8499 273.66 75.969 273.886 76.1132C274.118 76.2637 274.318 76.4455 274.494 76.6462C274.676 76.8531 274.851 77.1164 275.027 77.4173C275.19 77.7433 275.428 77.7371 275.516 77.712C275.603 77.6932 275.823 77.618 275.867 77.2669C275.898 76.8405 275.904 76.4142 275.898 75.9941C275.892 75.643 275.873 75.2606 275.842 74.8719C275.823 74.6023 275.591 74.3891 275.321 74.3891H266.688C266.349 74.3891 266.199 74.6023 266.199 74.8154C266.199 75.0098 266.331 75.1665 266.544 75.2292C266.707 75.2794 266.851 75.3421 266.97 75.4236C267.077 75.4926 267.171 75.5929 267.24 75.712C267.315 75.8437 267.371 76.0129 267.409 76.2198C267.447 76.4455 267.472 76.7465 267.472 77.1164V87.2669C267.472 87.6368 267.453 87.9377 267.409 88.1635C267.371 88.3766 267.315 88.5459 267.24 88.6713C267.171 88.7904 267.077 88.8907 266.97 88.9597C266.851 89.0412 266.707 89.1039 266.55 89.1541C266.331 89.2168 266.199 89.3735 266.199 89.5679C266.199 89.781 266.349 89.9942 266.688 89.9942H275.453C275.685 89.9942 275.886 89.8437 275.948 89.6243C276.067 89.223 276.168 88.7591 276.243 88.2575C276.331 87.6744 276.381 87.0914 276.393 86.5208C276.393 86.1258 276.118 86.0506 276.036 86.0381L276.049 86.0318Z" fill="black"/>
<path d="M308.337 86.9158C308.293 86.7339 308.243 86.5458 308.18 86.364C308.118 86.1759 308.061 86.038 308.011 85.9314C307.917 85.7621 307.798 85.6806 307.641 85.6806C307.484 85.6806 307.359 85.7809 307.259 85.9816C307.096 86.3828 306.889 86.7841 306.651 87.1791C306.419 87.5678 306.143 87.9314 305.835 88.2512C305.541 88.5647 305.19 88.8154 304.795 88.9973C304.042 89.3546 303.046 89.4173 302.024 88.8656C301.516 88.596 301.045 88.1697 300.632 87.5991C300.205 87.0223 299.854 86.2825 299.578 85.3985C299.303 84.5145 299.171 83.4487 299.183 82.2323C299.183 81.1414 299.303 80.1446 299.528 79.2605C299.754 78.3828 300.061 77.6179 300.431 76.9972C300.795 76.3891 301.221 75.9126 301.685 75.5865C302.136 75.2731 302.607 75.1101 303.077 75.1101C303.591 75.1101 304.042 75.2104 304.425 75.4047C304.82 75.6054 305.209 75.9063 305.591 76.3013C305.704 76.4141 305.823 76.5395 305.942 76.6837C306.067 76.8279 306.187 76.9784 306.306 77.1414C306.425 77.3044 306.538 77.4549 306.632 77.5991C306.732 77.7433 306.826 77.875 306.908 78.0004C307.058 78.2198 307.215 78.2511 307.321 78.2386C307.478 78.2198 307.597 78.1007 307.672 77.8938C307.716 77.7684 307.754 77.643 307.785 77.5239C307.817 77.411 307.848 77.2543 307.886 77.0536C307.923 76.8467 307.948 76.6524 307.955 76.4768C307.955 76.3953 307.961 76.3138 307.961 76.2198C307.961 75.9314 307.829 75.6555 307.597 75.48C307.353 75.2981 307.108 75.1351 306.876 74.9909C306.556 74.7966 306.187 74.6085 305.767 74.4267C305.34 74.2386 304.914 74.1006 304.488 74.0129C304.061 73.9251 303.629 73.8749 303.196 73.8749C302.281 73.8749 301.422 74.0881 300.638 74.5082C299.861 74.9282 299.183 75.5238 298.625 76.2887C298.074 77.0411 297.635 77.9565 297.328 79.0098C297.02 80.0568 296.864 81.2292 296.864 82.4957C296.864 83.5803 297.02 84.6148 297.328 85.5678C297.635 86.527 298.08 87.3797 298.638 88.1132C299.202 88.8531 299.892 89.4424 300.682 89.8625C301.478 90.2888 302.368 90.5082 303.328 90.5082C303.773 90.5082 304.237 90.4581 304.701 90.3515C305.158 90.2449 305.629 90.0882 306.086 89.8687C306.544 89.6556 306.97 89.4048 307.346 89.1352C307.672 88.897 307.986 88.6274 308.274 88.3264C308.412 88.1822 308.488 87.9941 308.475 87.7998C308.469 87.6869 308.456 87.5741 308.437 87.4612C308.406 87.2857 308.368 87.0976 308.325 86.9158H308.337Z" fill="black"/>
<path d="M322.456 86.0318C322.237 85.9942 322.049 86.1195 321.986 86.3264C321.798 86.7591 321.579 87.129 321.34 87.4174C321.102 87.712 320.832 87.9628 320.544 88.1634C320.262 88.3578 319.948 88.5083 319.616 88.6086C319.278 88.7089 318.908 88.7591 318.519 88.7591H316.061V82.4267H318.431C318.889 82.4267 319.246 82.5396 319.497 82.7528C319.767 82.991 319.992 83.3421 320.18 83.8061C320.293 84.0631 320.5 84.1258 320.663 84.0945C320.826 84.0631 321.008 83.9252 321.008 83.6305V79.9753C321.008 79.6806 320.832 79.5427 320.663 79.5114C320.582 79.4988 320.312 79.48 320.174 79.8311C319.992 80.3013 319.767 80.6524 319.503 80.8719C319.252 81.0788 318.895 81.1854 318.431 81.1854H316.061V75.6242H318.412C318.814 75.6242 319.177 75.6681 319.491 75.7559C319.798 75.8436 320.068 75.9628 320.293 76.107C320.525 76.2574 320.726 76.4392 320.901 76.6399C321.083 76.8468 321.265 77.1101 321.434 77.411C321.597 77.7371 321.829 77.7308 321.923 77.7057C322.036 77.6806 322.231 77.5991 322.274 77.2606C322.306 76.8405 322.312 76.4079 322.306 75.9878C322.306 75.6367 322.281 75.2543 322.249 74.8656C322.231 74.596 321.999 74.3828 321.729 74.3828H313.096C312.757 74.3828 312.607 74.596 312.607 74.8091C312.607 75.0035 312.738 75.1602 312.952 75.2229C313.115 75.2731 313.259 75.3358 313.378 75.4173C313.484 75.4863 313.578 75.5866 313.647 75.7057C313.723 75.8374 313.779 76.0066 313.817 76.2135C313.854 76.4392 313.879 76.7402 313.879 77.1101V87.2606C313.879 87.6305 313.861 87.9315 313.817 88.1572C313.779 88.3641 313.723 88.5396 313.647 88.665C313.578 88.7841 313.484 88.8782 313.378 88.9534C313.259 89.0349 313.115 89.0976 312.958 89.1478C312.738 89.2105 312.607 89.3672 312.607 89.5616C312.607 89.7747 312.757 89.9879 313.096 89.9879H321.861C322.093 89.9879 322.293 89.8374 322.356 89.618C322.475 89.2167 322.575 88.7528 322.651 88.2512C322.738 87.6744 322.789 87.0851 322.801 86.5145C322.801 86.1196 322.525 86.0443 322.444 86.0318H322.456Z" fill="black"/>
<path d="M90.8814 93.8939C86.5115 93.1352 84.6933 89.9377 84.5867 89.7434L62.1728 48.7902C61.0819 46.7965 59.4581 45.1476 57.4832 44.019L56.9189 43.6993C63.2888 43.6993 76.6807 36.6271 76.6807 23.0221C76.6807 13.4483 72.4111 7.88092 65.8218 4.36366C58.8499 0.639502 48.0474 0 36.2605 0H23.8278V32.2948L36.2605 43.762L37.4204 44.8278H38.7683C43.2574 44.8278 47.3828 47.273 49.5395 51.2103L72.2418 92.6901C73.3892 94.7842 75.5836 96.082 77.966 96.082H90.6683C91.2827 96.082 91.778 95.5804 91.778 94.9722C91.778 94.4331 91.4018 93.9754 90.8814 93.8813V93.8939ZM41.4768 42.2259H36.2605V2.75236H41.2072C47.6273 2.75236 62.5992 5.73044 62.5992 22.276C62.5992 29.7932 56.8374 42.2259 41.4831 42.2259H41.4768Z" fill="black"/>
<path d="M23.834 90.8279V96.0944H23.8403C27.7149 96.0944 23.9532 96.0944 23.8403 96.0944H36.2667V64.7651L23.834 53.0974V90.8279Z" fill="black"/>
<path d="M8.1474 71.2856C8.07843 70.6023 8.03455 70.0568 7.40759 69.9063C7.40759 69.9063 6.55492 69.5552 5.93422 70.8092V70.8342L0.598776 79.7246C-0.510947 81.455 0.0533188 82.2011 1.21947 84.0192C5.80883 91.1792 16.0409 95.5804 23.8277 96.0945V90.8281C17.8904 89.3108 10.1662 84.3265 8.14113 71.2856H8.1474Z" fill="#00B4B4"/>
<path d="M48.8749 60.5269C45.4767 56.9344 21.4703 34.3889 18.5738 31.1475C18.2039 30.7337 10.3543 22.1192 10.4421 14.9405C10.4922 10.5831 11.9656 7.41069 15.464 5.12855C18.3606 3.2414 21.207 2.57055 23.834 2.57055V0C10.8872 0 3.10034 8.4013 3.10034 21.4546C3.10034 35.8622 23.834 53.1037 23.834 53.1037L36.2666 64.7715C36.2666 64.7715 44.2228 71.6492 44.2228 78.4831C44.2228 87.6493 36.2666 91.129 36.2666 91.129V96.1008H36.2792C40.4422 96.1008 49.2698 92.7841 53.9658 85.2355C58.4047 78.0881 55.8404 67.8937 48.8874 60.5332L48.8749 60.5269Z" fill="#00B4B4"/>
</svg>
