<svg width="48" height="48" viewBox="0 0 48 48" fill="none" xmlns="http://www.w3.org/2000/svg">
<rect width="48" height="48" rx="24" fill="#F7F6F3"/>
<path d="M36.601 13.5283C36.8011 13.2634 37.1989 13.2634 37.399 13.5283L38.3894 14.8398C38.4493 14.919 38.5313 14.9786 38.6252 15.011L40.1785 15.5477C40.4922 15.6561 40.6152 16.0345 40.4251 16.3067L39.4839 17.6539C39.427 17.7353 39.3957 17.8317 39.3938 17.931L39.3634 19.5741C39.3573 19.906 39.0354 20.1399 38.7178 20.0432L37.1457 19.5644C37.0507 19.5354 36.9493 19.5354 36.8543 19.5644L35.2822 20.0432C34.9646 20.1399 34.6427 19.906 34.6366 19.5741L34.6062 17.931C34.6043 17.8317 34.573 17.7353 34.5161 17.6539L33.5749 16.3067C33.3848 16.0345 33.5078 15.6561 33.8215 15.5477L35.3748 15.011C35.4687 14.9786 35.5507 14.919 35.6106 14.8398L36.601 13.5283Z" fill="#00B4B4"/>
<path d="M24 23.3333C27.6819 23.3333 30.6667 20.3486 30.6667 16.6667C30.6667 12.9848 27.6819 10 24 10C20.3181 10 17.3333 12.9848 17.3333 16.6667C17.3333 20.3486 20.3181 23.3333 24 23.3333Z" fill="#194F5B"/>
<path d="M12 36C12 36.5523 12.4477 37 13 37H24H35C35.5523 37 36 36.5523 36 36V35.5544C35.9788 33.5219 35.4427 31.5277 34.4419 29.7587C33.4411 27.9893 32.0083 26.5027 30.2771 25.4373C28.546 24.372 26.5731 23.7629 24.5427 23.6667C24.3617 23.6582 24.1807 23.6537 24 23.6533C23.8193 23.6537 23.6383 23.6582 23.4573 23.6667C21.4269 23.7629 19.454 24.372 17.7229 25.4373C15.9917 26.5027 14.5589 27.9893 13.5581 29.7587C12.5573 31.5277 12.0212 33.5219 12 35.5544V36Z" fill="#194F5B"/>
</svg>
