<svg width="48" height="48" viewBox="0 0 48 48" fill="none" xmlns="http://www.w3.org/2000/svg">
<rect opacity="0.2" y="7.62939e-06" width="48" height="48" rx="24" fill="#B3A68B"/>
<path d="M12 16V36C12 36.5523 12.4477 37 13 37H25.5331C25.829 37 26.1098 36.8689 26.2998 36.642L36.8193 24.0786C36.97 23.8986 37.0526 23.6714 37.0526 23.4366V18.9333C37.0526 18.381 36.6049 17.9333 36.0526 17.9333H25.676C25.4116 17.9333 25.158 17.8286 24.9706 17.6421L22.6084 15.2912C22.421 15.1047 22.1674 15 21.903 15H13C12.4477 15 12 15.4477 12 16Z" fill="#194F5B"/>
<path d="M32.5856 12.4142C33.3666 11.6332 34.6329 11.6332 35.414 12.4142L37.0252 14.0254C37.0588 14.0591 37.0639 14.1116 37.0393 14.1523C36.5835 14.9075 36.6814 15.9036 37.333 16.5553C37.9848 17.2071 38.9808 17.3049 39.736 16.849C39.7767 16.8244 39.8293 16.8295 39.8629 16.8631L41.4741 18.4743C42.2552 19.2554 42.2552 20.5217 41.4741 21.3028L29.3028 33.4741C28.5217 34.2552 27.2554 34.2552 26.4743 33.4741L24.8631 31.8629C24.8295 31.8293 24.8244 31.7767 24.849 31.736C25.305 30.9808 25.2072 29.9848 24.5553 29.333C23.9035 28.6813 22.9075 28.5833 22.1523 29.0393C22.1116 29.0639 22.0591 29.0588 22.0254 29.0252L20.4142 27.414C19.6332 26.6329 19.6332 25.3666 20.4142 24.5856L32.5856 12.4142Z" fill="#33C3C3"/>
<path d="M31.7778 16.5553L30.1111 14.8887" stroke="#F0EDE8" stroke-linecap="round" stroke-linejoin="round"/>
<path d="M35.3889 20.1664L33.7222 18.4998" stroke="#F0EDE8" stroke-linecap="round" stroke-linejoin="round"/>
<path d="M39 23.7776L37.3333 22.1109" stroke="#F0EDE8" stroke-linecap="round" stroke-linejoin="round"/>
<path d="M13.0086 35.9372L13.0131 36.0423C13.0357 36.5776 13.4763 37 14.0122 37H34.4925C34.9221 37 35.3036 36.7257 35.4404 36.3185L39.136 25.3185C39.3537 24.6705 38.8716 24 38.1881 24H18.1129C17.6966 24 17.3239 24.2579 17.1771 24.6474L13.072 35.5424C13.0245 35.6684 13.0029 35.8027 13.0086 35.9372Z" fill="#47727C"/>
</svg>
